<?xml version="1.0" ?><!DOCTYPE svg  PUBLIC '-//W3C//DTD SVG 1.1//EN'  'http://www.w3.org/Graphics/SVG/1.1/DTD/svg11.dtd'><svg height="100%" style="fill-rule:evenodd;clip-rule:evenodd;stroke-linejoin:round;stroke-miterlimit:1.41421;" version="1.1" viewBox="0 0 995 995" width="100%" xml:space="preserve" xmlns="http://www.w3.org/2000/svg" xmlns:xlink="http://www.w3.org/1999/xlink"><g><circle cx="497.963" cy="497.963" id="circle4695" r="497.963" style="fill:rgb(37,183,211);"/><path d="M760.389,828.829C760.219,828.978 760.048,829.126 759.877,829.273L760.133,829.052C760.219,828.978 760.304,828.903 760.389,828.829L760.643,828.604C760.812,828.454 760.98,828.302 761.148,828.15C760.98,828.302 760.812,828.454 760.643,828.604L760.389,828.829ZM756.048,832.262L756.048,860.059C756.048,869.771 748.175,877.645 738.463,877.645L251.617,877.645C241.905,877.645 234.031,869.771 234.031,860.059L234.031,824.888C234.031,815.175 241.905,807.302 251.617,807.302L302.175,807.302C309.672,710.979 348.238,619.831 418.561,533.974C436.359,505.354 432.122,480.735 418.561,461.454C337.193,323.669 303.291,238.856 300.374,188.625L251.617,188.625C241.905,188.625 234.031,180.752 234.031,171.039L234.031,135.868C234.031,126.156 241.905,118.282 251.617,118.282L738.463,118.282C748.175,118.282 756.048,126.156 756.048,135.868L756.048,171.039C756.048,180.752 748.175,188.625 738.463,188.625L686.089,188.625C683.285,238.82 649.409,323.693 567.886,461.74C554.325,481.021 550.088,505.64 567.886,534.261C638.139,620.032 676.698,711.084 684.25,807.302L738.463,807.302C748.175,807.302 756.048,815.175 756.048,824.888L756.048,829.363L761.896,827.454L761.648,827.688L761.398,827.92C761.481,827.843 761.565,827.765 761.648,827.688L761.896,827.454L756.048,829.883L756.048,832.262C756.426,831.994 756.8,831.721 757.172,831.442C757.914,830.885 758.644,830.308 759.361,829.709L759.101,829.924C758.468,830.446 757.825,830.952 757.172,831.442C756.8,831.72 756.426,831.994 756.048,832.262Z" style="fill:rgb(235,235,235);"/><path d="M490.629,471.866C430.167,418.609 403.833,372.625 392.58,329.853L592.235,332.375C571.955,388.786 539.657,436.429 490.629,471.866Z" style="fill:rgb(255,175,0);"/><path d="M489.799,596.55C401.1,674.678 362.469,742.137 345.96,804.884L638.855,801.183C609.103,718.429 561.722,648.537 489.799,596.55Z" style="fill:rgb(255,175,0);"/></g></svg>