<?xml version="1.0" encoding="utf-8"?>
<!-- Svg Vector Icons : http://www.onlinewebfonts.com/icon -->
<!DOCTYPE svg PUBLIC "-//W3C//DTD SVG 1.1//EN" "http://www.w3.org/Graphics/SVG/1.1/DTD/svg11.dtd">
<svg version="1.1" xmlns="http://www.w3.org/2000/svg" xmlns:xlink="http://www.w3.org/1999/xlink" x="0px" y="0px" viewBox="0 0 1000 1000" enable-background="new 0 0 1000 1000" xml:space="preserve">
<metadata> Svg Vector Icons : http://www.onlinewebfonts.com/icon </metadata>
<g><g><path d="M990,782v-5h-22.2h-20.4H780c62.3-75.2,99.7-171.7,99.7-277c0-240.2-194.7-434.9-434.9-434.9C204.7,65.2,10,259.8,10,500c0,240.1,194.7,434.8,434.9,434.8c67.1,0,130.5-15.7,187.3-42.9h1.1h314.2h20.4H990v-6.1h-28.3v-12.3l28.3,0v-7.6h-13.9v-62.7H990v-8.9h-28.9V782L990,782L990,782z M902.3,781.8h33.2v12.3h-33.2V781.8z M837.8,781.8H871v12.3h-33.2V781.8z M803.7,781.8v12.3h-33.1v-6.7c1.7-1.9,3.5-3.7,5.2-5.7L803.7,781.8L803.7,781.8z M278,496.2c-49.5,16-102.6-11-118.7-60.5c-16-49.5,11-102.6,60.5-118.7c49.5-16,102.6,11.1,118.7,60.5C354.6,427,327.5,480.1,278,496.2z M280.4,735.3c-49.5,16-102.6-11.1-118.7-60.5c-16.1-49.5,11-102.6,60.5-118.7c49.5-16,102.6,11,118.7,60.5C357,666.2,329.9,719.3,280.4,735.3z M419.3,444.3c49.5-16,102.6,11,118.7,60.5c16.1,49.5-11,102.6-60.5,118.7c-49.5,16-102.7-11.1-118.7-60.5C342.8,513.5,369.9,460.4,419.3,444.3z M427.2,218.3c49.5-16,102.7,11,118.7,60.5c16,49.5-11,102.7-60.5,118.7c-49.5,16-102.6-11-118.7-60.5C350.7,287.4,377.8,234.3,427.2,218.3z M415.8,675.1c49.5-16,102.6,11.1,118.7,60.6c16,49.5-11,102.6-60.5,118.7c-49.5,16-102.7-11-118.7-60.5C339.2,744.4,366.3,691.2,415.8,675.1z M620,577.3c49.5-16.1,102.6,11,118.7,60.5c16.1,49.5-11,102.6-60.5,118.7c-49.5,16.1-102.7-11.1-118.7-60.5C543.4,646.4,570.5,593.3,620,577.3z M627.9,351.2c49.5-16,102.7,11,118.7,60.5c16,49.5-11,102.6-60.5,118.7c-49.5,16-102.6-11-118.7-60.5C551.3,420.4,578.4,367.3,627.9,351.2z M444.9,120.7c191.6,0,349.6,142.2,375.2,326.8c-2.3-9.4-4.6-18.9-7.6-28.3C746.6,216.2,528.6,105,325.5,171c-132.4,43-225.3,150.7-255.9,276.7C95.1,263,253.2,120.7,444.9,120.7z M645.6,885.5c7.1-3.7,13.9-7.7,20.7-11.7v11.7H645.6z M733.6,885.5h-33.1v-12.4h33.1V885.5z M766.7,865.7h-87.1c28.5-18.3,54.7-39.9,78.1-64.1h9V865.7z M803.7,885.5h-33.1v-12.4h33.1C803.7,873.1,803.7,885.5,803.7,885.5z M871,885.5h-33.2v-12.4H871V885.5z M935.5,885.5h-33.2v-12.4h33.2V885.5z M938.2,865.7H802v-64.2h136.2V865.7z"/><g></g><g></g><g></g><g></g><g></g><g></g><g></g><g></g><g></g><g></g><g></g><g></g><g></g><g></g><g></g></g><g></g><g></g><g></g><g></g><g></g><g></g><g></g><g></g><g></g><g></g><g></g><g></g><g></g><g></g><g></g></g>
</svg>